<svg width="7" height="7" viewBox="0 0 7 7" fill="none" xmlns="http://www.w3.org/2000/svg">
<path d="M5.55049 0.663479H1.94936C1.42504 0.663479 1 1.09045 1 1.61714V5.20967C1 5.73636 1.42504 6.16333 1.94936 6.16333H5.55049C6.0748 6.16333 6.49985 5.73636 6.49985 5.20967V1.61714C6.49985 1.09045 6.0748 0.663479 5.55049 0.663479Z" stroke="#ED9915" stroke-width="0.705752" stroke-miterlimit="22.9256"/>
<path d="M2.32624 0V1.38929" stroke="#ED9915" stroke-width="0.705752" stroke-miterlimit="22.9256"/>
<path d="M3.75064 0V1.38929" stroke="#ED9915" stroke-width="0.705752" stroke-miterlimit="22.9256"/>
<path d="M5.12775 0V1.38929" stroke="#ED9915" stroke-width="0.705752" stroke-miterlimit="22.9256"/>
<path d="M2.54119 2.40457H2.04107V2.90469H2.54119V2.40457Z" fill="#ED9915" stroke="#ED9915" stroke-width="0.199903" stroke-miterlimit="22.9256"/>
<path d="M3.98852 2.40457H3.4884V2.90469H3.98852V2.40457Z" fill="#ED9915" stroke="#ED9915" stroke-width="0.199903" stroke-miterlimit="22.9256"/>
<path d="M5.40145 2.40457H4.90134V2.90469H5.40145V2.40457Z" fill="#ED9915" stroke="#ED9915" stroke-width="0.199903" stroke-miterlimit="22.9256"/>
<path d="M2.54119 3.51085H2.04107V4.01096H2.54119V3.51085Z" fill="#ED9915" stroke="#ED9915" stroke-width="0.199903" stroke-miterlimit="22.9256"/>
<path d="M3.98852 3.51085H3.4884V4.01096H3.98852V3.51085Z" fill="#ED9915" stroke="#ED9915" stroke-width="0.199903" stroke-miterlimit="22.9256"/>
<path d="M5.40145 3.51085H4.90134V4.01096H5.40145V3.51085Z" fill="#ED9915" stroke="#ED9915" stroke-width="0.199903" stroke-miterlimit="22.9256"/>
<path d="M2.54119 4.78192H2.04107V5.28203H2.54119V4.78192Z" fill="#ED9915" stroke="#ED9915" stroke-width="0.199903" stroke-miterlimit="22.9256"/>
<path d="M3.98852 4.78192H3.4884V5.28203H3.98852V4.78192Z" fill="#ED9915" stroke="#ED9915" stroke-width="0.199903" stroke-miterlimit="22.9256"/>
<path d="M5.40145 4.78192H4.90134V5.28203H5.40145V4.78192Z" fill="#ED9915" stroke="#ED9915" stroke-width="0.199903" stroke-miterlimit="22.9256"/>
</svg>
