<?xml version="1.0" encoding="utf-8"?><svg viewBox="0 0 7 8" xmlns="http://www.w3.org/2000/svg" xmlns:xlink="http://www.w3.org/1999/xlink"><style>:root>svg{display:none}:root>svg:target{display:block}</style><svg fill="none" viewBox="0 0 7 7" id="calendar" xmlns="http://www.w3.org/2000/svg"><path d="M5.55.663h-3.6a.952.952 0 00-.95.954V5.21c0 .526.425.953.95.953h3.6c.525 0 .95-.427.95-.953V1.617a.952.952 0 00-.95-.954zM2.326 0v1.39M3.75 0v1.39M5.128 0v1.39" stroke="#000" stroke-width=".706" stroke-miterlimit="22.926"/><path d="M2.541 2.405h-.5v.5h.5v-.5zM3.989 2.405h-.5v.5h.5v-.5zM5.401 2.405h-.5v.5h.5v-.5zM2.541 3.51h-.5v.501h.5v-.5zM3.989 3.51h-.5v.501h.5v-.5zM5.401 3.51h-.5v.501h.5v-.5zM2.541 4.782h-.5v.5h.5v-.5zM3.989 4.782h-.5v.5h.5v-.5zM5.401 4.782h-.5v.5h.5v-.5z" fill="#000" stroke="#000" stroke-width=".2" stroke-miterlimit="22.926"/></svg><svg viewBox="0 0 6 8" id="geo" xmlns="http://www.w3.org/2000/svg"><path fill-rule="evenodd" clip-rule="evenodd" d="M3.366 1A2.366 2.366 0 015.73 3.366c0 1.306-1.112 2.807-2.365 4.06C1.97 6.031 1 4.672 1 3.366A2.366 2.366 0 013.366 1zm0 1.554a.883.883 0 110 1.765.883.883 0 010-1.765z"/></svg></svg>